<?xml version="1.0" encoding="UTF-8" standalone="no"?><svg xmlns="http://www.w3.org/2000/svg" xmlns:xlink="http://www.w3.org/1999/xlink" fill="#000000" height="482" preserveAspectRatio="xMidYMid meet" version="1" viewBox="9.0 9.0 482.0 482.0" width="482" zoomAndPan="magnify"><g><g id="change1_1"><path d="M451,250c0,111.01-89.99,201-201,201c-80.92,0-150.67-47.82-182.54-116.74c-7.05-15.24-12.25-31.53-15.3-48.55 C50.08,274.12,49,262.19,49,250c0-111.01,89.99-201,201-201c83.84,0,155.7,51.34,185.84,124.29c3.88,9.4,7.08,19.15,9.51,29.2 C449.04,217.73,451,233.64,451,250z" fill="#45a9dd"/></g><g id="change1_2"><path d="M464,250c0,118.19-95.81,214-214,214c-86.15,0-160.41-50.91-194.35-124.29 c-7.51-16.23-13.04-33.57-16.29-51.69C37.15,275.68,36,262.98,36,250c0-118.19,95.81-214,214-214 c89.26,0,165.77,54.66,197.86,132.33c4.13,10.01,7.54,20.39,10.12,31.09C461.91,215.64,464,232.58,464,250z" fill="#45a9dd"/></g><g id="change1_3"><path d="M484.22,193.04c-2.91-12.05-6.75-23.74-11.4-35.01C436.68,70.56,350.52,9,250,9C116.9,9,9,116.9,9,250 c0,14.62,1.3,28.92,3.78,42.82c3.66,20.41,9.9,39.93,18.35,58.21C69.35,433.67,152.98,491,250,491c133.1,0,241-107.9,241-241 C491,230.38,488.65,211.3,484.22,193.04z M250,483.12c-93.85,0-174.75-55.46-211.71-135.39c-8.18-17.68-14.2-36.58-17.75-56.31 c-2.41-13.45-3.66-27.29-3.66-41.42C16.88,121.26,121.26,16.88,250,16.88c97.23,0,180.58,59.54,215.54,144.15 c4.49,10.9,8.21,22.21,11.03,33.86c4.28,17.68,6.55,36.13,6.55,55.1C483.12,378.74,378.74,483.12,250,483.12z" fill="#45a9dd"/></g><g id="change2_1"><path d="M445.35,202.49C436.68,315.23,342.46,404,227.5,404c-63.2,0-120.15-26.84-160.04-69.74 c-7.05-15.24-12.25-31.53-15.3-48.55C50.08,274.12,49,262.19,49,250c0-111.01,89.99-201,201-201c83.84,0,155.7,51.34,185.84,124.29 C439.72,182.69,442.92,192.44,445.35,202.49z" fill="#69c6f6"/></g><g><g id="change3_3"><path d="M250,365c-22.38,0-44.08-6.44-62.75-18.61c-18.18-11.86-32.6-28.52-41.69-48.18 c-4.09-8.85-7.04-18.2-8.76-27.79c-1.2-6.71-1.8-13.58-1.8-20.43c0-30.72,11.96-59.6,33.68-81.32 C190.4,146.96,219.28,135,250,135c23.21,0,45.58,6.88,64.69,19.91c18.65,12.71,33.05,30.42,41.64,51.2 c2.25,5.45,4.08,11.08,5.44,16.72c2.15,8.84,3.23,17.99,3.23,27.17c0,30.72-11.96,59.6-33.68,81.32 C309.6,353.04,280.72,365,250,365z M250,147.21c-56.68,0-102.79,46.11-102.79,102.79c0,6.13,0.54,12.28,1.61,18.28 c1.53,8.55,4.17,16.9,7.82,24.81c16.77,36.27,53.42,59.7,93.35,59.7c56.68,0,102.79-46.11,102.79-102.79 c0-8.21-0.97-16.39-2.89-24.3c-1.22-5.04-2.85-10.06-4.86-14.93C329.08,172.16,291.78,147.21,250,147.21z" fill="#1c2562"/></g><g id="change3_2"><path d="M250,302.41c-44.43,0-83.9-10.92-103.03-28.5c-4.52-4.16-7.81-8.64-9.78-13.31 c-1.45-3.47-2.19-7.03-2.19-10.6c0-14.97,12.65-28.6,35.61-38.36c21.31-9.06,49.5-14.05,79.39-14.05 c45.83,0,87.06,11.97,105.06,30.49c2.49,2.57,4.54,5.25,6.08,7.97c2.56,4.49,3.86,9.19,3.86,13.96 c0,14.97-12.65,28.6-35.61,38.36C308.08,297.42,279.89,302.41,250,302.41z M250,209.8c-28.28,0-54.78,4.64-74.61,13.08 c-17.91,7.61-28.18,17.5-28.18,27.12c0,1.94,0.41,3.92,1.23,5.87c1.28,3.04,3.57,6.08,6.79,9.05 c16.7,15.36,53.9,25.28,94.76,25.28c28.28,0,54.78-4.64,74.61-13.08c17.91-7.61,28.18-17.5,28.18-27.12 c0-2.62-0.76-5.29-2.26-7.92c-1.04-1.83-2.46-3.68-4.23-5.5C330.73,220.56,292.03,209.8,250,209.8z" fill="#1c2562"/></g><g id="change3_4"><path d="M250,365c-22.53,0-42-26.09-50.8-68.1c-1.81-8.63-3.11-17.73-3.87-27.06c-0.53-6.52-0.79-13.19-0.79-19.84 c0-29.94,5.33-58.18,15-79.52C219.91,147.6,234.28,135,250,135c12.1,0,23.46,7.46,32.85,21.57 c8.46,12.72,14.95,30.26,18.79,50.75c0.99,5.31,1.8,10.78,2.4,16.28c0.95,8.6,1.42,17.48,1.42,26.4c0,29.94-5.33,58.18-15,79.52 C280.09,352.4,265.72,365,250,365z M250,147.21c-10.49,0-21.19,10.32-29.34,28.31c-8.97,19.79-13.91,46.24-13.91,74.48 c0,6.32,0.25,12.67,0.75,18.86c0.72,8.81,1.94,17.41,3.65,25.54c7.32,34.92,22.93,58.39,38.85,58.39 c10.49,0,21.19-10.32,29.34-28.31c8.97-19.79,13.91-46.24,13.91-74.48c0-8.47-0.45-16.91-1.35-25.07 c-0.57-5.19-1.33-10.36-2.27-15.36c-3.54-18.88-9.4-34.87-16.96-46.23C267.79,155.98,259.88,147.21,250,147.21z" fill="#1c2562"/></g><g id="change3_1"><path d="M358.57,256.11H141.11c-3.37,0-6.11-2.73-6.11-6.11s2.73-6.11,6.11-6.11h217.46c3.37,0,6.11,2.73,6.11,6.11 S361.94,256.11,358.57,256.11z" fill="#1c2562"/></g></g><g id="change4_1"><path d="M276.07,118.47c10.03,30.8-19.19,67.92-65.26,82.92c-30.71,10-61.15,7.64-81.01-4.17 c-5.55-3.3-9.83-8.45-11.84-14.58c-0.01-0.03-0.02-0.07-0.03-0.1c-10.03-30.8,19.19-67.92,65.26-82.92 c30.71-10,61.15-7.64,81.01,4.17c5.55,3.3,9.83,8.45,11.84,14.58C276.05,118.4,276.06,118.43,276.07,118.47z" fill="#ffffff" opacity="0.15"/></g></g></svg>